# xmcd
# 
# Track frame offsets:
#     150
#     19503
#     41643
#     60972
#     80961
#     101092
#     124049
#     145933
#     165337
#     186178
#     205274
#     222701
#     240293
# 
# Disc length: 3535
# 
# Revision: 0
# Processed by: cddbd v1.5.2PL0 Copyright (c) Steve Scherf et al.
# Submitted via: fre:ac v1.1beta1pre5
# 
DISCID=b20dcd0d
DTITLE=Various Artist - Dés László - "évek óta már"
DYEAR=2001
DGENRE=POP - Rock
TTITLE0=Dés László - Ha lenne jövő [Nemes]
TTITLE1=Czerovszky Henriett - A hiába szép [Bereményi]
TTITLE2=Udvaros Dorottya and Somló Tamás - Vetkőzés [Bereményi]
TTITLE3=Básti Juli - Gyönge hely [Bereményi]
TTITLE4=Jazz+Az - Tíz kicsi bűnjel [Bereményi and Geszti]
TTITLE5=Dés László - Végtelen út [Nemes]
TTITLE6=Jazz+Az - Süss fel nap! [Geszti]
TTITLE7=Jazz+Az - Ma jól vagyok [Geszti]
TTITLE8=Jazz+Az - Helló édes! [Geszti]
TTITLE9=Fekete Jenő - Egy jó kis nap [Geszti]
TTITLE10=Majsai Gábor - Rossz pénz [Geszti]
TTITLE11=Dés László - Évek óta már [Geszti]
TTITLE12=Jazz+Az - Cantaloop [nem Dés írta, csak szaxizik and Geszti]
EXTD=YEAR: 2001
EXTT0=
EXTT1=
EXTT2=
EXTT3=
EXTT4=
EXTT5=
EXTT6=
EXTT7=
EXTT8=
EXTT9=
EXTT10=
EXTT11=
EXTT12=
PLAYORDER=
